<svg width="15" height="14" viewBox="0 0 15 14" fill="none" xmlns="http://www.w3.org/2000/svg">
<g clip-path="url(#clip0_1545_9255)">
<path d="M3.87 5.85001L6.41 1.79001C6.50843 1.62954 6.64675 1.4973 6.81149 1.40617C6.97622 1.31504 7.16175 1.26813 7.35 1.27001V1.27001C7.49826 1.26466 7.64608 1.28908 7.78474 1.34184C7.9234 1.39459 8.05008 1.47461 8.15729 1.57715C8.2645 1.6797 8.35006 1.8027 8.40893 1.93888C8.46779 2.07506 8.49876 2.22166 8.5 2.37001V5.28001H12.89C13.0522 5.28527 13.2115 5.32481 13.3573 5.39602C13.5032 5.46723 13.6323 5.56851 13.7362 5.69319C13.8401 5.81788 13.9164 5.96314 13.9602 6.11943C14.0039 6.27572 14.0141 6.43951 13.99 6.60001L13.19 11.76C13.1559 12.0358 13.0222 12.2896 12.8141 12.4737C12.606 12.6579 12.3379 12.7597 12.06 12.76H5.5C5.18771 12.7612 4.87949 12.6893 4.6 12.55L3.88 12.19" stroke="#000001" stroke-linecap="round" stroke-linejoin="round"/>
<path d="M3.87 5.8501V12.1601" stroke="#000001" stroke-linecap="round" stroke-linejoin="round"/>
<path d="M1.5 5.8501H3.87V12.1601H1.5C1.36739 12.1601 1.24021 12.1074 1.14645 12.0137C1.05268 11.9199 1 11.7927 1 11.6601V6.3501C1 6.21749 1.05268 6.09031 1.14645 5.99654C1.24021 5.90278 1.36739 5.8501 1.5 5.8501V5.8501Z" stroke="#000001" stroke-linecap="round" stroke-linejoin="round"/>
</g>
<defs>
<clipPath id="clip0_1545_9255">
<rect width="14" height="14" fill="white" transform="translate(0.5)"/>
</clipPath>
</defs>
</svg>
