<svg width="14" height="14" viewBox="0 0 14 14" fill="none" xmlns="http://www.w3.org/2000/svg">
<g clip-path="url(#clip0_1545_10416)">
<path d="M5 5C6.24264 5 7.25 3.99264 7.25 2.75C7.25 1.50736 6.24264 0.5 5 0.5C3.75736 0.5 2.75 1.50736 2.75 2.75C2.75 3.99264 3.75736 5 5 5Z" stroke="#000001" stroke-linecap="round" stroke-linejoin="round"/>
<path d="M10.25 13.5C12.0449 13.5 13.5 12.0449 13.5 10.25C13.5 8.45507 12.0449 7 10.25 7C8.45507 7 7 8.45507 7 10.25C7 12.0449 8.45507 13.5 10.25 13.5Z" stroke="#000001" stroke-linecap="round" stroke-linejoin="round"/>
<path d="M7.95001 12.55L12.55 7.94995" stroke="#000001" stroke-linecap="round" stroke-linejoin="round"/>
<path d="M6.00003 6.60995C5.34062 6.45771 4.65533 6.45651 3.99539 6.60642C3.33545 6.75633 2.71793 7.05348 2.18901 7.47566C1.66009 7.89784 1.23344 8.43412 0.940965 9.04441C0.648489 9.65469 0.497753 10.3232 0.500025 11V12.5H4.50003" stroke="#000001" stroke-linecap="round" stroke-linejoin="round"/>
</g>
<defs>
<clipPath id="clip0_1545_10416">
<rect width="14" height="14" fill="white"/>
</clipPath>
</defs>
</svg>
