<svg width="15" height="14" viewBox="0 0 15 14" fill="none" xmlns="http://www.w3.org/2000/svg">
<g clip-path="url(#clip0_1545_11827)">
<path d="M6.32 10.9999L8.5 13.1699C8.63375 13.307 8.80098 13.4068 8.98514 13.4594C9.1693 13.512 9.36401 13.5156 9.55 13.4699C9.73715 13.4264 9.90996 13.3355 10.0518 13.2059C10.1937 13.0763 10.2998 12.9124 10.36 12.7299L13.94 1.9999C14.0147 1.79885 14.0301 1.58058 13.9844 1.37102C13.9387 1.16147 13.8338 0.969449 13.6821 0.817787C13.5304 0.666125 13.3384 0.5612 13.1289 0.515484C12.9193 0.469768 12.701 0.485183 12.5 0.559898L1.77 4.1399C1.58125 4.20437 1.41314 4.31807 1.28305 4.46926C1.15295 4.62046 1.0656 4.80364 1.03 4.9999C0.993259 5.17839 1.00144 5.36321 1.0538 5.53776C1.10617 5.7123 1.20107 5.87111 1.33 5.9999L4.07 8.7399L3.98 12.2099L6.32 10.9999Z" stroke="#000001" stroke-linecap="round" stroke-linejoin="round"/>
<path d="M13.62 0.779785L4.07 8.73979" stroke="#000001" stroke-linecap="round" stroke-linejoin="round"/>
</g>
<defs>
<clipPath id="clip0_1545_11827">
<rect width="14" height="14" fill="white" transform="translate(0.5)"/>
</clipPath>
</defs>
</svg>
